<svg xmlns="http://www.w3.org/2000/svg" xmlns:xlink="http://www.w3.org/1999/xlink" width="1080" zoomAndPan="magnify" viewBox="0 0 810 809.999993" height="1080" preserveAspectRatio="xMidYMid meet" version="1.0"><defs><g/></defs><rect x="-81" width="972" fill="#ffffff" y="-80.999999" height="971.999992" fill-opacity="0"/><rect x="-81" width="972" fill="#ffffff" y="-80.999999" height="971.999992" fill-opacity="0"/><g fill="#ffffff" fill-opacity="0"><g transform="translate(6.630503, 797.286964)"><g><path d="M 9.140625 -13.015625 C 11.523438 -13.015625 13.5 -12.257812 15.0625 -10.75 C 16.632812 -9.238281 17.421875 -7.335938 17.421875 -5.046875 C 17.421875 -3.660156 17.09375 -2.539062 16.4375 -1.6875 C 15.78125 -0.84375 14.925781 -0.421875 13.875 -0.421875 C 12.644531 -0.421875 11.929688 -0.921875 11.734375 -1.921875 L 11.6875 -2.296875 C 10.9375 -1.203125 9.875 -0.65625 8.5 -0.65625 C 7.34375 -0.65625 6.335938 -1.0625 5.484375 -1.875 C 4.640625 -2.6875 4.21875 -3.722656 4.21875 -4.984375 C 4.21875 -6.234375 4.59375 -7.28125 5.34375 -8.125 C 6.101562 -8.976562 7.085938 -9.40625 8.296875 -9.40625 C 9.015625 -9.40625 9.648438 -9.242188 10.203125 -8.921875 C 10.753906 -8.597656 11.097656 -8.300781 11.234375 -8.03125 L 11.234375 -9.234375 L 13.234375 -9.234375 L 13.234375 -2.765625 C 13.234375 -2.097656 13.515625 -1.765625 14.078125 -1.765625 C 14.546875 -1.765625 14.953125 -2.066406 15.296875 -2.671875 C 15.648438 -3.285156 15.828125 -4.054688 15.828125 -4.984375 C 15.828125 -6.859375 15.210938 -8.414062 13.984375 -9.65625 C 12.765625 -10.894531 11.148438 -11.515625 9.140625 -11.515625 C 7.210938 -11.515625 5.578125 -10.875 4.234375 -9.59375 C 2.890625 -8.320312 2.21875 -6.773438 2.21875 -4.953125 C 2.21875 -3.148438 2.851562 -1.65625 4.125 -0.46875 C 5.40625 0.707031 6.992188 1.296875 8.890625 1.296875 C 10.253906 1.296875 11.445312 0.929688 12.46875 0.203125 L 13.234375 1.5625 C 12.703125 1.9375 12.023438 2.238281 11.203125 2.46875 C 10.378906 2.707031 9.609375 2.828125 8.890625 2.828125 C 6.535156 2.828125 4.566406 2.085938 2.984375 0.609375 C 1.410156 -0.867188 0.625 -2.722656 0.625 -4.953125 C 0.625 -7.222656 1.441406 -9.132812 3.078125 -10.6875 C 4.722656 -12.238281 6.742188 -13.015625 9.140625 -13.015625 Z M 8.6875 -7.5625 C 8.007812 -7.5625 7.457031 -7.320312 7.03125 -6.84375 C 6.601562 -6.375 6.390625 -5.785156 6.390625 -5.078125 C 6.390625 -4.347656 6.601562 -3.726562 7.03125 -3.21875 C 7.46875 -2.71875 8.035156 -2.46875 8.734375 -2.46875 C 9.441406 -2.46875 10.007812 -2.710938 10.4375 -3.203125 C 10.875 -3.703125 11.09375 -4.320312 11.09375 -5.0625 C 11.09375 -5.78125 10.867188 -6.375 10.421875 -6.84375 C 9.984375 -7.320312 9.40625 -7.5625 8.6875 -7.5625 Z M 8.6875 -7.5625 "/></g></g></g><g fill="#ffffff" fill-opacity="0"><g transform="translate(24.676061, 797.286964)"><g><path d="M 3.703125 -9.859375 L 3.703125 -7.890625 C 4.378906 -9.253906 5.515625 -9.9375 7.109375 -9.9375 L 7.109375 -7.890625 C 6.140625 -7.941406 5.351562 -7.710938 4.75 -7.203125 C 4.144531 -6.703125 3.796875 -6.019531 3.703125 -5.15625 L 3.703125 0 L 1.578125 0 L 1.578125 -9.859375 Z M 3.703125 -9.859375 "/></g></g></g><g fill="#ffffff" fill-opacity="0"><g transform="translate(31.975801, 797.286964)"><g><path d="M 5.640625 -9.9375 C 7.328125 -9.9375 8.550781 -9.425781 9.3125 -8.40625 C 10.070312 -7.382812 10.382812 -5.953125 10.25 -4.109375 L 2.796875 -4.109375 C 2.972656 -3.347656 3.332031 -2.75 3.875 -2.3125 C 4.414062 -1.875 5.078125 -1.65625 5.859375 -1.65625 C 6.972656 -1.65625 7.898438 -2.035156 8.640625 -2.796875 L 9.765625 -1.59375 C 8.753906 -0.476562 7.394531 0.078125 5.6875 0.078125 C 4.164062 0.078125 2.945312 -0.378906 2.03125 -1.296875 C 1.113281 -2.222656 0.65625 -3.425781 0.65625 -4.90625 C 0.65625 -6.394531 1.113281 -7.601562 2.03125 -8.53125 C 2.957031 -9.457031 4.160156 -9.925781 5.640625 -9.9375 Z M 2.765625 -5.671875 L 8.390625 -5.671875 C 8.359375 -6.460938 8.09375 -7.085938 7.59375 -7.546875 C 7.101562 -8.003906 6.457031 -8.234375 5.65625 -8.234375 C 4.875 -8.234375 4.226562 -8.003906 3.71875 -7.546875 C 3.207031 -7.085938 2.890625 -6.460938 2.765625 -5.671875 Z M 2.765625 -5.671875 "/></g></g></g><g fill="#ffffff" fill-opacity="0"><g transform="translate(42.869832, 797.286964)"><g><path d="M 7.484375 0 L 7.484375 -1.203125 C 6.785156 -0.335938 5.695312 0.09375 4.21875 0.09375 C 3.175781 0.09375 2.335938 -0.191406 1.703125 -0.765625 C 1.078125 -1.335938 0.765625 -2.070312 0.765625 -2.96875 C 0.765625 -3.863281 1.085938 -4.578125 1.734375 -5.109375 C 2.390625 -5.640625 3.304688 -5.914062 4.484375 -5.9375 L 7.46875 -5.9375 L 7.46875 -6.21875 C 7.46875 -6.851562 7.265625 -7.34375 6.859375 -7.6875 C 6.460938 -8.03125 5.878906 -8.203125 5.109375 -8.203125 C 4.160156 -8.203125 3.191406 -7.867188 2.203125 -7.203125 L 1.328125 -8.6875 C 2.085938 -9.132812 2.765625 -9.453125 3.359375 -9.640625 C 3.960938 -9.835938 4.703125 -9.9375 5.578125 -9.9375 C 6.835938 -9.9375 7.8125 -9.628906 8.5 -9.015625 C 9.195312 -8.398438 9.550781 -7.550781 9.5625 -6.46875 L 9.578125 0 Z M 4.671875 -1.59375 C 5.421875 -1.59375 6.054688 -1.769531 6.578125 -2.125 C 7.109375 -2.476562 7.40625 -2.925781 7.46875 -3.46875 L 7.46875 -4.375 L 4.796875 -4.375 C 4.097656 -4.375 3.582031 -4.269531 3.25 -4.0625 C 2.925781 -3.863281 2.765625 -3.53125 2.765625 -3.0625 C 2.765625 -2.613281 2.929688 -2.253906 3.265625 -1.984375 C 3.609375 -1.722656 4.078125 -1.59375 4.671875 -1.59375 Z M 4.671875 -1.59375 "/></g></g></g><g fill="#ffffff" fill-opacity="0"><g transform="translate(53.726807, 797.286964)"><g><path d="M 3.796875 0 L 1.671875 0 L 1.671875 -13.75 L 3.796875 -13.75 Z M 3.796875 0 "/></g></g></g><g fill="#ffffff" fill-opacity="0"><g transform="translate(59.192356, 797.286964)"><g><path d="M 3.796875 0 L 1.671875 0 L 1.671875 -13.75 L 3.796875 -13.75 Z M 3.796875 0 "/></g></g></g><g fill="#ffffff" fill-opacity="0"><g transform="translate(64.657905, 797.286964)"><g><path d="M 9.9375 -9.859375 L 5.453125 1.359375 C 4.847656 2.910156 3.78125 3.6875 2.25 3.6875 C 1.394531 3.6875 0.632812 3.410156 -0.03125 2.859375 L 0.875 1.203125 C 1.3125 1.523438 1.738281 1.6875 2.15625 1.6875 C 2.820312 1.6875 3.320312 1.320312 3.65625 0.59375 L 3.984375 -0.140625 L -0.09375 -9.859375 L 2.109375 -9.859375 L 5.0625 -2.390625 L 7.796875 -9.859375 Z M 9.9375 -9.859375 "/></g></g></g><g fill="#ffffff" fill-opacity="0"><g transform="translate(74.495887, 797.286964)"><g><path d="M 10.46875 -9.859375 L 10.46875 -0.96875 C 10.46875 0.445312 10.003906 1.570312 9.078125 2.40625 C 8.148438 3.238281 6.910156 3.65625 5.359375 3.65625 C 3.898438 3.65625 2.535156 3.222656 1.265625 2.359375 L 2.171875 0.8125 C 3.128906 1.53125 4.160156 1.890625 5.265625 1.890625 C 6.203125 1.890625 6.953125 1.632812 7.515625 1.125 C 8.078125 0.625 8.359375 -0.0507812 8.359375 -0.90625 L 8.359375 -2.15625 C 7.660156 -1.039062 6.570312 -0.484375 5.09375 -0.484375 C 3.757812 -0.484375 2.6875 -0.921875 1.875 -1.796875 C 1.0625 -2.671875 0.65625 -3.820312 0.65625 -5.25 C 0.65625 -6.644531 1.054688 -7.769531 1.859375 -8.625 C 2.660156 -9.488281 3.710938 -9.925781 5.015625 -9.9375 C 6.523438 -9.945312 7.640625 -9.390625 8.359375 -8.265625 L 8.359375 -9.859375 Z M 5.515625 -2.15625 C 6.347656 -2.15625 7.03125 -2.4375 7.5625 -3 C 8.09375 -3.570312 8.359375 -4.300781 8.359375 -5.1875 C 8.359375 -6.070312 8.09375 -6.796875 7.5625 -7.359375 C 7.039062 -7.921875 6.359375 -8.203125 5.515625 -8.203125 C 4.679688 -8.203125 4 -7.921875 3.46875 -7.359375 C 2.9375 -6.796875 2.664062 -6.070312 2.65625 -5.1875 C 2.664062 -4.300781 2.929688 -3.570312 3.453125 -3 C 3.984375 -2.4375 4.671875 -2.15625 5.515625 -2.15625 Z M 5.515625 -2.15625 "/></g></g></g><g fill="#ffffff" fill-opacity="0"><g transform="translate(86.353339, 797.286964)"><g><path d="M 3.703125 -9.859375 L 3.703125 -7.890625 C 4.378906 -9.253906 5.515625 -9.9375 7.109375 -9.9375 L 7.109375 -7.890625 C 6.140625 -7.941406 5.351562 -7.710938 4.75 -7.203125 C 4.144531 -6.703125 3.796875 -6.019531 3.703125 -5.15625 L 3.703125 0 L 1.578125 0 L 1.578125 -9.859375 Z M 3.703125 -9.859375 "/></g></g></g><g fill="#ffffff" fill-opacity="0"><g transform="translate(93.653078, 797.286964)"><g><path d="M 5.640625 -9.9375 C 7.328125 -9.9375 8.550781 -9.425781 9.3125 -8.40625 C 10.070312 -7.382812 10.382812 -5.953125 10.25 -4.109375 L 2.796875 -4.109375 C 2.972656 -3.347656 3.332031 -2.75 3.875 -2.3125 C 4.414062 -1.875 5.078125 -1.65625 5.859375 -1.65625 C 6.972656 -1.65625 7.898438 -2.035156 8.640625 -2.796875 L 9.765625 -1.59375 C 8.753906 -0.476562 7.394531 0.078125 5.6875 0.078125 C 4.164062 0.078125 2.945312 -0.378906 2.03125 -1.296875 C 1.113281 -2.222656 0.65625 -3.425781 0.65625 -4.90625 C 0.65625 -6.394531 1.113281 -7.601562 2.03125 -8.53125 C 2.957031 -9.457031 4.160156 -9.925781 5.640625 -9.9375 Z M 2.765625 -5.671875 L 8.390625 -5.671875 C 8.359375 -6.460938 8.09375 -7.085938 7.59375 -7.546875 C 7.101562 -8.003906 6.457031 -8.234375 5.65625 -8.234375 C 4.875 -8.234375 4.226562 -8.003906 3.71875 -7.546875 C 3.207031 -7.085938 2.890625 -6.460938 2.765625 -5.671875 Z M 2.765625 -5.671875 "/></g></g></g><g fill="#ffffff" fill-opacity="0"><g transform="translate(104.547109, 797.286964)"><g><path d="M 7.484375 0 L 7.484375 -1.203125 C 6.785156 -0.335938 5.695312 0.09375 4.21875 0.09375 C 3.175781 0.09375 2.335938 -0.191406 1.703125 -0.765625 C 1.078125 -1.335938 0.765625 -2.070312 0.765625 -2.96875 C 0.765625 -3.863281 1.085938 -4.578125 1.734375 -5.109375 C 2.390625 -5.640625 3.304688 -5.914062 4.484375 -5.9375 L 7.46875 -5.9375 L 7.46875 -6.21875 C 7.46875 -6.851562 7.265625 -7.34375 6.859375 -7.6875 C 6.460938 -8.03125 5.878906 -8.203125 5.109375 -8.203125 C 4.160156 -8.203125 3.191406 -7.867188 2.203125 -7.203125 L 1.328125 -8.6875 C 2.085938 -9.132812 2.765625 -9.453125 3.359375 -9.640625 C 3.960938 -9.835938 4.703125 -9.9375 5.578125 -9.9375 C 6.835938 -9.9375 7.8125 -9.628906 8.5 -9.015625 C 9.195312 -8.398438 9.550781 -7.550781 9.5625 -6.46875 L 9.578125 0 Z M 4.671875 -1.59375 C 5.421875 -1.59375 6.054688 -1.769531 6.578125 -2.125 C 7.109375 -2.476562 7.40625 -2.925781 7.46875 -3.46875 L 7.46875 -4.375 L 4.796875 -4.375 C 4.097656 -4.375 3.582031 -4.269531 3.25 -4.0625 C 2.925781 -3.863281 2.765625 -3.53125 2.765625 -3.0625 C 2.765625 -2.613281 2.929688 -2.253906 3.265625 -1.984375 C 3.609375 -1.722656 4.078125 -1.59375 4.671875 -1.59375 Z M 4.671875 -1.59375 "/></g></g></g><g fill="#ffffff" fill-opacity="0"><g transform="translate(115.404084, 797.286964)"><g><path d="M 6.609375 -2.265625 L 7.15625 -0.625 C 6.34375 -0.144531 5.53125 0.09375 4.71875 0.09375 C 3.914062 0.09375 3.253906 -0.144531 2.734375 -0.625 C 2.222656 -1.113281 1.96875 -1.832031 1.96875 -2.78125 L 1.96875 -7.890625 L 0.578125 -7.890625 L 0.578125 -9.484375 L 1.96875 -9.484375 L 1.96875 -12.1875 L 4.078125 -12.1875 L 4.078125 -9.484375 L 6.984375 -9.484375 L 6.984375 -7.890625 L 4.078125 -7.890625 L 4.078125 -3.171875 C 4.078125 -2.671875 4.160156 -2.320312 4.328125 -2.125 C 4.503906 -1.925781 4.773438 -1.828125 5.140625 -1.828125 C 5.523438 -1.828125 6.015625 -1.972656 6.609375 -2.265625 Z M 6.609375 -2.265625 "/></g></g></g><g fill="#ffffff" fill-opacity="0"><g transform="translate(122.944687, 797.286964)"><g><path d="M 4.515625 -9.953125 C 5.878906 -9.953125 7.03125 -9.617188 7.96875 -8.953125 L 7.1875 -7.375 C 6.25 -7.957031 5.304688 -8.25 4.359375 -8.25 C 3.390625 -8.25 2.90625 -7.921875 2.90625 -7.265625 C 2.90625 -6.941406 3.082031 -6.675781 3.4375 -6.46875 C 3.800781 -6.257812 4.238281 -6.082031 4.75 -5.9375 C 5.257812 -5.789062 5.769531 -5.625 6.28125 -5.4375 C 6.800781 -5.25 7.238281 -4.9375 7.59375 -4.5 C 7.957031 -4.070312 8.140625 -3.523438 8.140625 -2.859375 C 8.140625 -1.898438 7.773438 -1.171875 7.046875 -0.671875 C 6.328125 -0.171875 5.429688 0.078125 4.359375 0.078125 C 3.617188 0.078125 2.890625 -0.0390625 2.171875 -0.28125 C 1.460938 -0.53125 0.867188 -0.867188 0.390625 -1.296875 L 1.15625 -2.8125 C 1.570312 -2.445312 2.082031 -2.148438 2.6875 -1.921875 C 3.300781 -1.703125 3.890625 -1.59375 4.453125 -1.59375 C 4.929688 -1.59375 5.316406 -1.675781 5.609375 -1.84375 C 5.910156 -2.019531 6.0625 -2.289062 6.0625 -2.65625 C 6.0625 -3.019531 5.878906 -3.3125 5.515625 -3.53125 C 5.160156 -3.757812 4.726562 -3.941406 4.21875 -4.078125 C 3.71875 -4.210938 3.210938 -4.375 2.703125 -4.5625 C 2.203125 -4.75 1.773438 -5.050781 1.421875 -5.46875 C 1.066406 -5.894531 0.890625 -6.4375 0.890625 -7.09375 C 0.890625 -8.03125 1.238281 -8.738281 1.9375 -9.21875 C 2.632812 -9.707031 3.492188 -9.953125 4.515625 -9.953125 Z M 4.515625 -9.953125 "/></g></g></g><g fill="#ffffff" fill-opacity="0"><g transform="translate(131.652508, 797.286964)"><g><path d="M 1.734375 -13.609375 C 1.972656 -13.847656 2.269531 -13.96875 2.625 -13.96875 C 2.988281 -13.96875 3.285156 -13.847656 3.515625 -13.609375 C 3.753906 -13.367188 3.875 -13.054688 3.875 -12.671875 C 3.875 -12.304688 3.753906 -12 3.515625 -11.75 C 3.285156 -11.507812 2.988281 -11.390625 2.625 -11.390625 C 2.269531 -11.390625 1.972656 -11.507812 1.734375 -11.75 C 1.503906 -12 1.390625 -12.304688 1.390625 -12.671875 C 1.390625 -13.054688 1.503906 -13.367188 1.734375 -13.609375 Z M 3.6875 0 L 1.578125 0 L 1.578125 -9.859375 L 3.6875 -9.859375 Z M 3.6875 0 "/></g></g></g><g fill="#ffffff" fill-opacity="0"><g transform="translate(136.914249, 797.286964)"><g><path d="M 6.609375 -2.265625 L 7.15625 -0.625 C 6.34375 -0.144531 5.53125 0.09375 4.71875 0.09375 C 3.914062 0.09375 3.253906 -0.144531 2.734375 -0.625 C 2.222656 -1.113281 1.96875 -1.832031 1.96875 -2.78125 L 1.96875 -7.890625 L 0.578125 -7.890625 L 0.578125 -9.484375 L 1.96875 -9.484375 L 1.96875 -12.1875 L 4.078125 -12.1875 L 4.078125 -9.484375 L 6.984375 -9.484375 L 6.984375 -7.890625 L 4.078125 -7.890625 L 4.078125 -3.171875 C 4.078125 -2.671875 4.160156 -2.320312 4.328125 -2.125 C 4.503906 -1.925781 4.773438 -1.828125 5.140625 -1.828125 C 5.523438 -1.828125 6.015625 -1.972656 6.609375 -2.265625 Z M 6.609375 -2.265625 "/></g></g></g><g fill="#ffffff" fill-opacity="0"><g transform="translate(144.454852, 797.286964)"><g><path d="M 5.640625 -9.9375 C 7.328125 -9.9375 8.550781 -9.425781 9.3125 -8.40625 C 10.070312 -7.382812 10.382812 -5.953125 10.25 -4.109375 L 2.796875 -4.109375 C 2.972656 -3.347656 3.332031 -2.75 3.875 -2.3125 C 4.414062 -1.875 5.078125 -1.65625 5.859375 -1.65625 C 6.972656 -1.65625 7.898438 -2.035156 8.640625 -2.796875 L 9.765625 -1.59375 C 8.753906 -0.476562 7.394531 0.078125 5.6875 0.078125 C 4.164062 0.078125 2.945312 -0.378906 2.03125 -1.296875 C 1.113281 -2.222656 0.65625 -3.425781 0.65625 -4.90625 C 0.65625 -6.394531 1.113281 -7.601562 2.03125 -8.53125 C 2.957031 -9.457031 4.160156 -9.925781 5.640625 -9.9375 Z M 2.765625 -5.671875 L 8.390625 -5.671875 C 8.359375 -6.460938 8.09375 -7.085938 7.59375 -7.546875 C 7.101562 -8.003906 6.457031 -8.234375 5.65625 -8.234375 C 4.875 -8.234375 4.226562 -8.003906 3.71875 -7.546875 C 3.207031 -7.085938 2.890625 -6.460938 2.765625 -5.671875 Z M 2.765625 -5.671875 "/></g></g></g><g fill="#e15d10" fill-opacity="1"><g transform="translate(1.814097, 592.211366)"><g><path d="M 285.09375 -82.796875 L 100.09375 -82.796875 L 64.984375 0 L 0.53125 0 L 162.453125 -366.84375 L 225.875 -366.84375 L 386.234375 0 L 320.203125 0 Z M 261.5 -137.828125 L 192.328125 -300.8125 L 123.15625 -137.828125 Z M 261.5 -137.828125 "/></g></g></g><g fill="#e15d10" fill-opacity="1"><g transform="translate(388.458244, 592.211366)"><g><path d="M 211.71875 0 L 211.71875 -34.0625 C 191.800781 -9.601562 161.054688 2.625 119.484375 2.625 C 89.785156 2.625 66.023438 -5.5 48.203125 -21.75 C 30.390625 -38 21.484375 -58.695312 21.484375 -83.84375 C 21.484375 -109.351562 30.738281 -129.617188 49.25 -144.640625 C 67.769531 -159.660156 93.628906 -167.347656 126.828125 -167.703125 L 211.203125 -167.703125 L 211.203125 -176.078125 C 211.203125 -193.898438 205.523438 -207.703125 194.171875 -217.484375 C 182.816406 -227.265625 166.304688 -232.15625 144.640625 -232.15625 C 117.734375 -232.15625 90.304688 -222.722656 62.359375 -203.859375 L 37.734375 -245.78125 C 59.046875 -258.363281 78.171875 -267.359375 95.109375 -272.765625 C 112.054688 -278.179688 132.9375 -280.890625 157.75 -280.890625 C 193.382812 -280.890625 220.984375 -272.242188 240.546875 -254.953125 C 260.109375 -237.660156 270.066406 -213.640625 270.421875 -182.890625 L 270.9375 0 Z M 132.0625 -45.0625 C 153.375 -45.0625 171.453125 -50.039062 186.296875 -60 C 201.148438 -69.957031 209.453125 -82.625 211.203125 -98 L 211.203125 -123.671875 L 135.734375 -123.671875 C 115.816406 -123.671875 101.226562 -120.789062 91.96875 -115.03125 C 82.707031 -109.269531 78.078125 -99.75 78.078125 -86.46875 C 78.078125 -73.894531 82.878906 -63.847656 92.484375 -56.328125 C 102.097656 -48.816406 115.289062 -45.0625 132.0625 -45.0625 Z M 132.0625 -45.0625 "/></g></g></g><g fill="#e15d10" fill-opacity="1"><g transform="translate(695.468212, 592.211366)"><g><path d="M 33.53125 -54.75 C 39.820312 -61.21875 47.679688 -64.453125 57.109375 -64.453125 C 66.546875 -64.453125 74.410156 -61.21875 80.703125 -54.75 C 86.992188 -48.289062 90.140625 -40.171875 90.140625 -30.390625 C 90.140625 -20.265625 86.992188 -11.878906 80.703125 -5.234375 C 74.410156 1.398438 66.546875 4.71875 57.109375 4.71875 C 47.679688 4.71875 39.820312 1.398438 33.53125 -5.234375 C 27.25 -11.878906 24.109375 -20.265625 24.109375 -30.390625 C 24.109375 -40.171875 27.25 -48.289062 33.53125 -54.75 Z M 33.53125 -54.75 "/></g></g></g></svg>