<svg xmlns="http://www.w3.org/2000/svg" xmlns:xlink="http://www.w3.org/1999/xlink" width="500" zoomAndPan="magnify" viewBox="0 0 375 374.999991" height="500" preserveAspectRatio="xMidYMid meet" version="1.0"><rect x="-37.5" width="450" fill="#ffffff" y="-37.499999" height="449.999989" 
fill-opacity="0"/><rect x="-37.5" width="450" fill="#ffffff" y="-37.499999" height="449.999989" fill-opacity="0"/><path fill="#e15d10" d="M 282.492188 220.460938 C 259.519531 220.460938 232.554688 209.398438 221.078125 172.371094 L 189.871094 172.371094 L 187.175781 180.878906 C 180.378906 203.007812 185.898438 203.578125 195.550781 204.421875 L 165.320312 204.421875 C 176.957031 203.417969 179.785156 200.726562 186.449219 179.601562 L 210.425781 103.152344 L 211.132812 103.152344 L 232.121094 169.109375 C 244.460938 208.53125 269.992188 218.613281 288.996094 218.613281 C 293.96875 218.613281 298.507812 217.90625 302.179688 216.902344 L 302.316406 217.609375 C 296.523438 219.320312 289.726562 220.460938 282.492188 220.460938 Z M 190.304688 171.09375 L 220.804688 171.09375 L 205.769531 121.585938 Z M 190.304688 171.09375 " 
fill-opacity="1" fill-rule="nonzero"/><path fill="#e15d10" d="M 73.382812 217.609375 L 73.519531 216.902344 C 77.214844 217.90625 81.757812 218.613281 86.707031 218.613281 C 105.710938 218.613281 131.238281 208.554688 143.582031 169.109375 L 164.570312 103.152344 L 165.277344 103.152344 L 189.277344 179.601562 C 195.9375 200.726562 198.789062 203.441406 210.402344 204.421875 L 180.195312 204.421875 C 189.847656 203.578125 195.367188 203.007812 188.570312 180.878906 L 185.878906 172.371094 L 154.667969 172.371094 C 143.171875 209.398438 116.226562 220.460938 93.253906 220.460938 C 86.023438 220.460938 79.199219 219.320312 73.382812 217.609375 Z M 170 121.585938 L 154.964844 171.09375 L 185.445312 171.09375 Z M 170 121.585938 " fill-opacity="1" fill-rule="nonzero"/></svg>